<svg width="37" height="30" viewBox="0 0 37 30" fill="none" xmlns="http://www.w3.org/2000/svg">
<g clip-path="url(#clip0_1_591)">
<path fill-rule="evenodd" clip-rule="evenodd" d="M0.500629 0.824311C0.55106 0.576885 0.655071 0.383042 1.11683 0.181319C2.07029 -0.237887 4.16789 0.203382 4.31761 0.21599C5.91721 0.529607 7.49002 0.978756 9.03131 1.53034C11.3165 2.34827 13.5275 3.39155 15.6677 4.48685C17.9355 5.67354 20.1135 6.99105 22.1244 8.51343C24.159 10.0547 26.0359 11.7804 27.738 13.6589C28.7608 14.7889 29.7221 15.9709 30.592 17.2222C32.5872 20.0952 34.1521 23.2487 35.3609 26.6275C35.4034 26.7252 35.3577 26.8387 35.26 26.8813C35.1623 26.9238 35.0489 26.8813 35.0047 26.782C33.3862 23.6868 31.38 20.921 29.1485 18.3458C28.1934 17.2458 27.2053 16.1821 26.1715 15.1608C24.4552 13.4682 22.6082 11.9128 20.6588 10.466C18.7298 9.03349 16.7173 7.69077 14.5787 6.52141C12.8924 5.57583 11.1557 4.67281 9.37172 3.88168C7.60349 3.09842 5.79586 2.42076 3.92992 1.95743L0.694473 1.00712C0.560516 0.933053 0.483292 0.896806 0.49905 0.825887" fill="black"/>
<path fill-rule="evenodd" clip-rule="evenodd" d="M34.2641 15.3263C34.2421 14.6014 34.8929 14.0135 35.6037 14.1617C35.6604 14.1743 35.7014 14.1869 35.7172 14.2027C35.8574 14.3335 35.9362 14.5951 36.0639 14.9528C36.1742 15.2649 36.2593 15.6273 36.3192 16.026C36.4862 17.115 36.4642 18.3191 36.4783 18.4641C36.5571 20.5979 36.9905 23.1195 37.0079 25.4708C37.0142 26.6071 36.9243 27.7087 36.6769 28.7188C36.6281 28.9127 36.5414 29.1538 36.4153 29.3461C36.3081 29.51 36.1742 29.6487 36.0229 29.7527C35.6809 29.9891 35.2617 30.0663 34.7999 29.9371C34.3335 29.8078 33.7062 29.2641 33.484 29.0892C32.5274 28.3264 31.5487 27.6157 30.5732 26.9159C29.6529 26.254 28.712 25.6347 27.7853 24.9838C26.3843 24.002 25.0337 22.9902 23.5476 22.0651C23.3206 21.9564 23.2277 21.6838 23.3364 21.4552C23.4467 21.2283 23.7194 21.1337 23.9463 21.2441C25.9557 21.9769 27.8941 22.7113 29.7222 23.7215C31.4636 24.6828 33.0617 25.8837 34.6691 27.1255C34.7385 26.5897 34.7669 26.035 34.7716 25.4676C34.7905 23.1384 34.4044 20.6357 34.365 18.5255L34.2673 15.3247L34.2641 15.3263Z" fill="black"/>
</g>
<defs>
<clipPath id="clip0_1_591">
<rect width="36.5087" height="30" fill="white" transform="matrix(-1 0 0 1 37.0078 0)"/>
</clipPath>
</defs>
</svg>
