<svg width="40" height="46" viewBox="0 0 40 46" fill="none" xmlns="http://www.w3.org/2000/svg">
<g clip-path="url(#clip0_1_204)">
<path d="M30.933 4.00687C31.4553 2.77601 31.0658 1.33851 29.9945 0.547883C28.9233 -0.242742 27.4625 -0.170867 26.4621 0.709602L3.79801 20.8346C2.91269 21.6252 2.59398 22.892 3.01008 24.0061C3.42618 25.1201 4.48856 25.8748 5.66603 25.8748H15.5373L8.72923 41.9928C8.20689 43.2237 8.59643 44.6612 9.66767 45.4518C10.7389 46.2424 12.1997 46.1705 13.2001 45.2901L35.8642 25.1651C36.7495 24.3744 37.0682 23.1076 36.6521 21.9936C36.236 20.8795 35.1825 20.1338 33.9962 20.1338H24.1249L30.933 4.00687Z" fill="#C2110E"/>
</g>
<defs>
<clipPath id="clip0_1_204">
<rect width="39.6622" height="46" fill="white"/>
</clipPath>
</defs>
</svg>
