<svg width="46" height="46" viewBox="0 0 46 46" fill="none" xmlns="http://www.w3.org/2000/svg">
<path d="M33.6555 7.78037C34.7785 6.65732 34.7785 4.8335 33.6555 3.71045C32.5324 2.5874 30.7086 2.5874 29.5856 3.71045L17.25 16.055L12.093 10.898C10.9699 9.7749 9.14612 9.7749 8.02307 10.898C6.90002 12.021 6.90002 13.8448 8.02307 14.9679L15.2106 22.1554C16.3336 23.2784 18.1574 23.2784 19.2805 22.1554L33.6555 7.78037ZM42.2805 19.2804C43.4035 18.1573 43.4035 16.3335 42.2805 15.2105C41.1574 14.0874 39.3336 14.0874 38.2106 15.2105L17.25 36.18L7.78049 26.7194C6.65745 25.5964 4.83362 25.5964 3.71057 26.7194C2.58752 27.8425 2.58752 29.6663 3.71057 30.7894L15.2106 42.2894C16.3336 43.4124 18.1574 43.4124 19.2805 42.2894L42.2805 19.2894V19.2804Z" fill="#0B0A0C"/>
</svg>
